<svg width="32" height="32" viewBox="0 0 32 32" fill="none" xmlns="http://www.w3.org/2000/svg">
<path d="M16.0001 15.3332C15.116 15.3332 14.2682 14.982 13.6431 14.3569C13.0179 13.7317 12.6667 12.8839 12.6667 11.9998C12.6667 11.1158 13.0179 10.2679 13.6431 9.64281C14.2682 9.01769 15.116 8.6665 16.0001 8.6665C16.8841 8.6665 17.732 9.01769 18.3571 9.64281C18.9822 10.2679 19.3334 11.1158 19.3334 11.9998C19.3334 12.4376 19.2472 12.871 19.0797 13.2754C18.9122 13.6799 18.6666 14.0473 18.3571 14.3569C18.0476 14.6664 17.6801 14.9119 17.2757 15.0794C16.8713 15.247 16.4378 15.3332 16.0001 15.3332ZM16.0001 2.6665C13.5247 2.6665 11.1508 3.64983 9.40042 5.40017C7.65008 7.15051 6.66675 9.52448 6.66675 11.9998C6.66675 18.9998 16.0001 29.3332 16.0001 29.3332C16.0001 29.3332 25.3334 18.9998 25.3334 11.9998C25.3334 9.52448 24.3501 7.15051 22.5997 5.40017C20.8494 3.64983 18.4754 2.6665 16.0001 2.6665Z" fill="#FFFBF3"/>
</svg>
